<svg width="500" height="500" viewBox="0 0 500 500" fill="none" xmlns="http://www.w3.org/2000/svg">
<path d="M251.12 456.93C382.857 456.93 489.65 394.192 489.65 316.8C489.65 239.408 382.857 176.67 251.12 176.67C119.384 176.67 12.5901 239.408 12.5901 316.8C12.5901 394.192 119.384 456.93 251.12 456.93Z" fill="#F5F5F5"/>
<path d="M93.46 371.25C99.36 372.42 105.55 372.11 111.46 373.3C115.508 374.227 119.467 375.508 123.29 377.13C126.757 378.463 130.217 379.823 133.67 381.21C134.36 381.48 142.67 384.34 142.67 384.73C156.67 389.95 170.89 397.46 186.31 396.56C188.133 396.453 189.916 395.983 191.555 395.178C193.194 394.374 194.656 393.251 195.856 391.875C197.057 390.499 197.97 388.897 198.544 387.164C199.119 385.431 199.341 383.6 199.2 381.78C198.98 378.85 197.81 375.95 198.2 373.03C199.35 365.21 206.53 366.03 212.3 367.36C215.67 368.14 218.99 369.09 222.3 370.15C230.96 372.93 240.08 375.53 246.97 381.8C251.4 385.8 255.67 387.43 261.66 388.1C265.83 388.57 269.95 388.83 273.95 390.22C277.95 391.61 281.33 394.22 284.95 396.22C289.952 398.9 295.597 400.147 301.263 399.824C306.928 399.501 312.395 397.621 317.06 394.39C318.61 393.29 320.2 391.68 319.9 389.8C319.16 385.28 311.59 384.36 308.38 382.46C302.59 379.02 296.77 375.61 290.91 372.28C279.177 365.613 267.31 359.213 255.31 353.08C242.49 346.51 229.48 340.22 215.93 335.31C209.26 332.89 201.65 330.85 195.27 333.97C190.12 336.48 188.09 341.25 184.75 345.49C181.64 349.43 177.61 353.49 173.04 355.72C169.4 357.48 165.27 357.9 161.23 358.08C147.82 358.68 134.4 357.08 121.23 354.62C115.65 353.62 110.01 352.39 104.34 352.74C98.26 353.11 88.34 354.67 84.97 360.54C84.397 361.455 84.0128 362.475 83.84 363.54C83.7944 364.411 83.9512 365.28 84.2982 366.08C84.6452 366.88 85.173 367.589 85.84 368.15C87.1786 369.269 88.7501 370.076 90.44 370.51C91.4328 370.81 92.4409 371.057 93.46 371.25Z" fill="#E0E0E0"/>
<path d="M396.43 321.72C408.354 321.72 418.02 316.137 418.02 309.25C418.02 302.363 408.354 296.78 396.43 296.78C384.506 296.78 374.84 302.363 374.84 309.25C374.84 316.137 384.506 321.72 396.43 321.72Z" fill="#E0E0E0"/>
<path d="M379.71 388.55L376.18 386.55C373.79 385.17 373.79 382.93 376.18 381.55L384 377L355.6 360.56L347.75 365.1C346.408 365.781 344.925 366.136 343.42 366.136C341.915 366.136 340.432 365.781 339.09 365.1L335.56 363.1C333.17 361.72 333.17 359.48 335.56 358.1L359.4 344.3C360.742 343.619 362.225 343.264 363.73 343.264C365.235 343.264 366.718 343.619 368.06 344.3L371.58 346.3C373.98 347.68 373.98 349.92 371.58 351.3L362.91 356.3L391.34 372.72L400.02 367.72C401.362 367.039 402.845 366.684 404.35 366.684C405.855 366.684 407.338 367.039 408.68 367.72L412.21 369.72C414.6 371.1 414.6 373.34 412.21 374.72L388.37 388.48C387.034 389.172 385.553 389.538 384.048 389.551C382.544 389.563 381.057 389.22 379.71 388.55Z" fill="#E0E0E0"/>
<path d="M440.07 249.23L430.54 243.73C430.54 243.73 428.21 223.33 429.76 207.53C431.94 185.32 446.28 158.61 463.39 164.88C480.5 171.15 455.54 193.77 449.99 212.6C444.44 231.43 440.07 249.23 440.07 249.23Z" fill="#BA68C8"/>
<path opacity="0.15" d="M440.07 249.23L430.54 243.73C430.54 243.73 428.21 223.33 429.76 207.53C431.94 185.32 446.28 158.61 463.39 164.88C480.5 171.15 455.54 193.77 449.99 212.6C444.44 231.43 440.07 249.23 440.07 249.23Z" fill="black"/>
<path d="M435.06 246.91C435.21 246.902 435.352 246.836 435.455 246.726C435.557 246.616 435.613 246.47 435.61 246.32C433.94 196.98 458.5 172.17 458.75 171.92C458.84 171.809 458.885 171.669 458.878 171.527C458.871 171.384 458.811 171.25 458.711 171.148C458.611 171.047 458.477 170.986 458.335 170.977C458.193 170.968 458.052 171.012 457.94 171.1C457.68 171.35 432.77 196.52 434.46 246.36C434.463 246.436 434.48 246.51 434.512 246.579C434.544 246.648 434.589 246.71 434.645 246.761C434.701 246.812 434.766 246.852 434.837 246.877C434.909 246.903 434.985 246.914 435.06 246.91Z" fill="white"/>
<path d="M446.06 252.66L439.28 248.74C439.28 248.74 438.12 234.74 444.99 217.74C450.99 202.93 465.79 190.65 473.25 193.23C480.71 195.81 480.52 201.1 476.88 206.64C473.24 212.18 451.13 225.41 446.06 252.66Z" fill="#BA68C8"/>
<path d="M442.48 251.17C442.634 251.17 442.781 251.109 442.89 251C442.999 250.891 443.06 250.744 443.06 250.59C442.92 219.4 472.21 198.32 472.51 198.11C472.572 198.065 472.624 198.009 472.664 197.944C472.704 197.879 472.731 197.807 472.743 197.732C472.755 197.657 472.752 197.58 472.734 197.506C472.717 197.432 472.685 197.362 472.64 197.3C472.597 197.238 472.542 197.184 472.478 197.144C472.414 197.103 472.343 197.076 472.268 197.064C472.193 197.052 472.117 197.055 472.043 197.073C471.97 197.091 471.9 197.124 471.84 197.17C471.54 197.38 441.77 218.81 441.9 250.6C441.905 250.751 441.968 250.895 442.076 251.001C442.184 251.107 442.329 251.168 442.48 251.17Z" fill="white"/>
<path d="M76.2101 240.41L84.2101 235.77C84.2101 235.77 89.0001 215.91 87.1201 198C84.4401 172.87 67.8901 163.42 61.6001 165.58C55.3101 167.74 53.4901 175.06 63.9001 190.03C70.0001 198.89 77.5901 217.29 76.2101 240.41Z" fill="#BA68C8"/>
<g opacity="0.15">
<path opacity="0.15" d="M76.2101 240.41L84.2101 235.77C84.2101 235.77 89.0001 215.91 87.1201 198C84.4401 172.87 67.8901 163.42 61.6001 165.58C55.3101 167.74 53.4901 175.06 63.9001 190.03C70.0001 198.89 77.5901 217.29 76.2101 240.41Z" fill="black"/>
</g>
<path d="M79.54 230.65H79.46C79.3864 230.639 79.3157 230.614 79.2522 230.575C79.1887 230.536 79.1338 230.484 79.0908 230.424C79.0478 230.363 79.0176 230.294 79.002 230.221C78.9864 230.148 78.9857 230.073 79 230C83.4 206.82 75.3 180.78 65.27 169.94C65.1793 169.83 65.1342 169.689 65.1439 169.547C65.1535 169.404 65.2172 169.271 65.3219 169.174C65.4266 169.077 65.5645 169.023 65.7072 169.024C65.85 169.026 65.9869 169.081 66.09 169.18C76.3 180.18 84.56 206.69 80.09 230.18C80.0728 230.313 80.007 230.434 79.9054 230.521C79.8038 230.608 79.6736 230.654 79.54 230.65Z" fill="white"/>
<path d="M55.17 252.56C53.9 253.21 50.52 250.32 49.58 249.62C47.9679 248.399 46.6971 246.784 45.89 244.93C44.9966 242.825 44.7732 240.496 45.25 238.26C45.5026 237.078 45.8367 235.916 46.25 234.78C46.64 233.65 47.02 232.53 47.41 231.41C47.8631 230.324 48.091 229.157 48.08 227.98C47.9 225.63 45.91 223.89 44.08 222.38C42.08 220.71 40.01 218.54 40.16 215.72C40.4489 213.552 41.4475 211.541 43 210C44.43 208.36 46.1 206.93 47.41 205.2C48.4183 203.972 48.979 202.438 49 200.85C48.9166 199.878 48.6377 198.932 48.18 198.07C47.1288 196.268 46.2226 194.386 45.47 192.44C44.88 190.44 45.1 187.99 46.71 186.66C48.03 185.57 49.91 185.5 51.62 185.66C53.2066 185.938 54.7144 186.555 56.04 187.47C60.39 190.18 62.67 195.61 67.31 197.76C69.1691 198.454 71.0694 199.032 73 199.49C74.89 200.09 76.78 201.16 77.57 202.97C79.14 206.53 75.69 210.66 76.73 214.41C77.65 217.73 80.73 219.14 82.39 222.17C83.0518 223.507 83.269 225.021 83.01 226.49C82.7274 228.982 81.992 231.402 80.84 233.63C79.5471 235.913 78.1144 238.114 76.55 240.22L55.17 252.56Z" fill="#BA68C8"/>
<path d="M67.46 246.16C67.3105 246.147 67.1721 246.076 67.0747 245.962C66.9774 245.848 66.929 245.7 66.94 245.55C68.94 223.5 59.8 198.55 52.59 191.12C52.4856 191.015 52.427 190.873 52.427 190.725C52.427 190.577 52.4856 190.435 52.59 190.33C52.695 190.226 52.837 190.167 52.985 190.167C53.1331 190.167 53.2751 190.226 53.38 190.33C60.73 198 70.11 223.29 68 245.65C67.9901 245.787 67.9291 245.916 67.8291 246.01C67.7292 246.104 67.5975 246.158 67.46 246.16Z" fill="white"/>
<path d="M65.2699 219C65.217 219.01 65.1628 219.01 65.1099 219C59.9496 217.293 54.6178 216.156 49.2099 215.61C49.1363 215.604 49.0646 215.583 48.999 215.549C48.9335 215.515 48.8753 215.468 48.8279 215.411C48.7805 215.355 48.7448 215.289 48.7228 215.218C48.7008 215.148 48.6931 215.074 48.6999 215C48.7033 214.926 48.7222 214.853 48.7556 214.786C48.7889 214.72 48.8359 214.661 48.8934 214.614C48.951 214.567 49.0178 214.532 49.0895 214.513C49.1613 214.493 49.2364 214.489 49.3099 214.5C54.8133 215.054 60.2392 216.211 65.4899 217.95C65.6118 217.999 65.7128 218.089 65.7752 218.204C65.8376 218.32 65.8574 218.453 65.8312 218.582C65.805 218.711 65.7344 218.826 65.6318 218.908C65.5293 218.99 65.4012 219.033 65.2699 219.03V219Z" fill="white"/>
<path d="M365.22 331.33C363.34 325.2 355.69 320.13 348.53 322.13C347.402 322.446 346.32 322.907 345.31 323.5C338.36 327.5 332.74 337.25 332.74 345.27C332.717 346.624 332.906 347.974 333.3 349.27C335.17 355.4 342.83 360.44 349.99 358.43C351.118 358.113 352.2 357.653 353.21 357.06C360.15 353.06 365.78 343.3 365.78 335.28C365.796 333.942 365.607 332.61 365.22 331.33Z" fill="#455A64"/>
<path d="M353.2 357.05C360.14 353.05 365.77 343.29 365.77 335.27C365.77 327.25 360.14 324 353.2 328C346.26 332 340.63 341.75 340.63 349.77C340.63 357.79 346.26 361.06 353.2 357.05Z" fill="#37474F"/>
<path d="M353.2 336.9C355.87 335.36 358.03 336.61 358.03 339.7C357.939 341.377 357.455 343.008 356.616 344.463C355.776 345.917 354.606 347.153 353.2 348.07C350.53 349.61 348.37 348.36 348.37 345.28C348.46 343.602 348.945 341.969 349.784 340.513C350.623 339.057 351.793 337.819 353.2 336.9Z" fill="#455A64"/>
<path d="M354.85 341.53C354.82 342.104 354.655 342.663 354.368 343.162C354.081 343.661 353.681 344.085 353.2 344.4C353.041 344.514 352.857 344.588 352.664 344.614C352.47 344.64 352.273 344.618 352.09 344.55L351.97 344.48C351.825 344.358 351.711 344.205 351.636 344.031C351.561 343.857 351.528 343.669 351.54 343.48C351.573 342.905 351.741 342.346 352.029 341.848C352.318 341.35 352.718 340.926 353.2 340.61C353.359 340.497 353.543 340.424 353.737 340.4C353.931 340.376 354.128 340.4 354.31 340.47L354.43 340.53C354.573 340.652 354.686 340.806 354.759 340.98C354.832 341.153 354.863 341.342 354.85 341.53Z" fill="#37474F"/>
<path d="M381.41 356.86C381.379 357.434 381.213 357.993 380.927 358.492C380.64 358.99 380.24 359.414 379.76 359.73C379.545 359.869 379.296 359.945 379.04 359.95C378.846 359.946 378.656 359.891 378.49 359.79L352.09 344.55L351.97 344.48C351.825 344.358 351.711 344.205 351.636 344.031C351.561 343.857 351.528 343.669 351.54 343.48C351.573 342.905 351.741 342.346 352.029 341.848C352.318 341.35 352.718 340.926 353.2 340.61C353.359 340.497 353.543 340.424 353.737 340.4C353.931 340.376 354.128 340.4 354.31 340.47L354.43 340.53L380.83 355.77C381.019 355.879 381.174 356.039 381.277 356.231C381.379 356.424 381.426 356.642 381.41 356.86Z" fill="#FAFAFA"/>
<path d="M407.32 355.63C405.45 349.5 397.79 344.43 390.63 346.44C389.5 346.758 388.414 347.218 387.4 347.81C380.46 351.81 374.83 361.57 374.83 369.59C374.812 370.944 375.001 372.293 375.39 373.59C377.27 379.72 384.92 384.76 392.08 382.76C393.209 382.446 394.291 381.985 395.3 381.39C402.24 377.39 407.87 367.63 407.87 359.62C407.893 358.27 407.708 356.924 407.32 355.63Z" fill="#455A64"/>
<path d="M395.31 381.35C402.25 377.35 407.88 367.59 407.88 359.58C407.88 351.57 402.25 348.31 395.31 352.31C388.37 356.31 382.73 366.07 382.74 374.09C382.75 382.11 388.36 385.36 395.31 381.35Z" fill="#37474F"/>
<path d="M395.31 361.21C397.98 359.67 400.14 360.91 400.14 364C400.05 365.677 399.565 367.308 398.726 368.762C397.887 370.217 396.716 371.453 395.31 372.37C392.64 373.91 390.47 372.66 390.47 369.58C390.562 367.903 391.049 366.271 391.89 364.816C392.731 363.362 393.902 362.127 395.31 361.21Z" fill="#455A64"/>
<path d="M397 365.83C396.969 366.404 396.804 366.963 396.517 367.462C396.23 367.96 395.831 368.384 395.35 368.7C395.191 368.814 395.007 368.888 394.814 368.914C394.62 368.94 394.423 368.918 394.24 368.85C394.196 368.835 394.155 368.811 394.12 368.78C393.975 368.658 393.861 368.505 393.786 368.331C393.711 368.157 393.679 367.969 393.69 367.78C393.721 367.203 393.888 366.642 394.176 366.142C394.465 365.641 394.867 365.216 395.35 364.9C395.508 364.789 395.691 364.718 395.883 364.694C396.074 364.67 396.269 364.692 396.45 364.76L396.57 364.83C396.717 364.95 396.832 365.103 396.907 365.277C396.982 365.451 397.014 365.641 397 365.83Z" fill="#37474F"/>
<path d="M401 368.15C400.97 368.723 400.805 369.281 400.518 369.778C400.231 370.275 399.831 370.697 399.35 371.01C399.135 371.149 398.886 371.225 398.63 371.23C398.435 371.231 398.244 371.176 398.08 371.07L394.24 368.85C394.196 368.835 394.155 368.811 394.12 368.78C393.975 368.658 393.861 368.505 393.786 368.331C393.711 368.157 393.679 367.969 393.69 367.78C393.721 367.203 393.888 366.642 394.176 366.142C394.465 365.641 394.867 365.216 395.35 364.9C395.508 364.789 395.691 364.718 395.883 364.694C396.074 364.67 396.269 364.692 396.45 364.76L396.57 364.83L400.42 367.04C400.612 367.151 400.768 367.314 400.871 367.511C400.974 367.707 401.018 367.929 401 368.15Z" fill="#FAFAFA"/>
<path d="M401 368.13C400.97 368.706 400.806 369.267 400.519 369.767C400.232 370.268 399.832 370.693 399.35 371.01C399.19 371.121 399.005 371.192 398.812 371.216C398.619 371.24 398.422 371.218 398.24 371.15L398.12 371.08C397.974 370.959 397.859 370.806 397.784 370.632C397.709 370.458 397.677 370.269 397.69 370.08C397.723 369.505 397.89 368.946 398.178 368.447C398.467 367.949 398.868 367.525 399.35 367.21C399.508 367.096 399.693 367.022 399.886 366.996C400.08 366.97 400.277 366.992 400.46 367.06L400.58 367.13C400.723 367.252 400.836 367.406 400.909 367.58C400.982 367.754 401.013 367.942 401 368.13Z" fill="#E0E0E0"/>
<path d="M411.62 282.61C410.997 280.359 410.153 278.175 409.1 276.09C408.99 275.85 408.87 275.61 408.75 275.38C407.746 273.426 407.238 271.255 407.269 269.058C407.3 266.861 407.871 264.705 408.93 262.78L409.16 262.38C410.476 260.131 411.15 257.565 411.11 254.96C411.029 253.537 410.602 252.155 409.864 250.935C409.127 249.715 408.102 248.693 406.88 247.96C406.238 247.579 405.57 247.245 404.88 246.96C404.255 246.714 403.717 246.286 403.338 245.732C402.958 245.177 402.753 244.522 402.75 243.85V240.01H390.46V243.85C390.454 244.522 390.245 245.176 389.862 245.727C389.478 246.278 388.937 246.701 388.31 246.94C387.619 247.199 386.95 247.514 386.31 247.88C385.077 248.607 384.041 249.625 383.293 250.846C382.545 252.066 382.108 253.451 382.02 254.88C381.961 257.483 382.615 260.052 383.91 262.31L384.12 262.68C385.174 264.615 385.735 266.779 385.753 268.982C385.77 271.186 385.244 273.359 384.22 275.31C384.1 275.55 383.98 275.78 383.87 276.02C382.795 278.094 381.934 280.272 381.3 282.52C380.86 284.698 380.659 286.918 380.7 289.14L380.69 307C380.69 309.32 382.2 311.65 385.25 313.42C387.989 314.922 391.023 315.809 394.14 316.02C395.618 316.14 397.102 316.14 398.58 316.02C401.674 315.826 404.689 314.966 407.42 313.5C410.49 311.75 412.03 309.44 412.04 307.12V294.18C412.04 292.57 412.11 290.89 412.12 289.18C412.191 286.978 412.024 284.775 411.62 282.61Z" fill="#BA68C8"/>
<path opacity="0.3" d="M411.62 282.61C410.997 280.359 410.153 278.175 409.1 276.09C408.99 275.85 408.87 275.61 408.75 275.38C407.746 273.426 407.238 271.255 407.269 269.058C407.3 266.861 407.871 264.705 408.93 262.78L409.16 262.38C410.476 260.131 411.15 257.565 411.11 254.96C411.029 253.537 410.602 252.155 409.864 250.935C409.127 249.715 408.102 248.693 406.88 247.96C406.238 247.579 405.57 247.245 404.88 246.96C404.255 246.714 403.717 246.286 403.338 245.732C402.958 245.177 402.753 244.522 402.75 243.85V240.01H390.46V243.85C390.454 244.522 390.245 245.176 389.862 245.727C389.478 246.278 388.937 246.701 388.31 246.94C387.619 247.199 386.95 247.514 386.31 247.88C385.077 248.607 384.041 249.625 383.293 250.846C382.545 252.066 382.108 253.451 382.02 254.88C381.961 257.483 382.615 260.052 383.91 262.31L384.12 262.68C385.174 264.615 385.735 266.779 385.753 268.982C385.77 271.186 385.244 273.359 384.22 275.31C384.1 275.55 383.98 275.78 383.87 276.02C382.795 278.094 381.934 280.272 381.3 282.52C380.86 284.698 380.659 286.918 380.7 289.14L380.69 307C380.69 309.32 382.2 311.65 385.25 313.42C387.989 314.922 391.023 315.809 394.14 316.02C395.618 316.14 397.102 316.14 398.58 316.02C401.674 315.826 404.689 314.966 407.42 313.5C410.49 311.75 412.03 309.44 412.04 307.12V294.18C412.04 292.57 412.11 290.89 412.12 289.18C412.191 286.978 412.024 284.775 411.62 282.61Z" fill="black"/>
<path opacity="0.1" d="M408.93 262.78L409.16 262.38C410.276 260.464 410.93 258.313 411.07 256.1C410.787 256.992 410.394 257.845 409.9 258.64C408.389 260.859 406.52 262.813 404.37 264.42C402.26 266.14 399.92 268.09 399.66 270.8C399.4 273.51 401.25 275.8 403.35 277.38C405.45 278.96 407.91 280.08 409.8 281.91C410.606 282.722 411.323 283.617 411.94 284.58C411.87 283.908 411.763 283.24 411.62 282.58C410.999 280.328 410.155 278.144 409.1 276.06C408.99 275.82 408.87 275.58 408.75 275.35C407.751 273.399 407.246 271.234 407.277 269.043C407.308 266.851 407.876 264.701 408.93 262.78Z" fill="black"/>
<path d="M388.43 244.28V246.35C388.43 247.58 389.23 248.82 390.87 249.78C392.697 250.711 394.719 251.196 396.77 251.196C398.821 251.196 400.843 250.711 402.67 249.78C403.396 249.396 404.025 248.853 404.51 248.19C404.899 247.669 405.115 247.04 405.13 246.39V244.29C405.135 244.101 405.115 243.913 405.07 243.73C404.903 243.113 404.606 242.538 404.199 242.045C403.792 241.552 403.284 241.151 402.71 240.87L402.59 240.8C400.774 239.897 398.773 239.427 396.745 239.427C394.717 239.427 392.716 239.897 390.9 240.8C390.321 241.074 389.808 241.469 389.396 241.96C388.983 242.45 388.681 243.023 388.51 243.64C388.453 243.849 388.426 244.064 388.43 244.28Z" fill="#BA68C8"/>
<path opacity="0.1" d="M388.43 244.28V246.35C388.43 247.58 389.23 248.82 390.87 249.78C392.697 250.711 394.719 251.196 396.77 251.196C398.821 251.196 400.843 250.711 402.67 249.78C403.396 249.396 404.025 248.853 404.51 248.19C404.899 247.669 405.115 247.04 405.13 246.39V244.29C405.135 244.101 405.115 243.913 405.07 243.73C404.903 243.113 404.606 242.538 404.199 242.045C403.792 241.552 403.284 241.151 402.71 240.87L402.59 240.8C400.774 239.897 398.773 239.427 396.745 239.427C394.717 239.427 392.716 239.897 390.9 240.8C390.321 241.074 389.808 241.469 389.396 241.96C388.983 242.45 388.681 243.023 388.51 243.64C388.453 243.849 388.426 244.064 388.43 244.28Z" fill="black"/>
<path opacity="0.2" d="M402.67 247.73C405.93 245.86 405.95 242.81 402.67 240.91C400.842 239.979 398.821 239.494 396.77 239.494C394.719 239.494 392.697 239.979 390.87 240.91C387.6 242.78 387.59 245.83 390.87 247.72C392.696 248.652 394.718 249.139 396.769 249.141C398.819 249.143 400.842 248.659 402.67 247.73Z" fill="black"/>
<path d="M388.44 241.87V243.12C388.439 243.315 388.463 243.51 388.51 243.7C388.678 244.317 388.976 244.891 389.385 245.383C389.794 245.875 390.304 246.273 390.88 246.55C392.481 247.423 394.267 247.907 396.09 247.96C398.374 248.123 400.659 247.648 402.69 246.59C403.406 246.201 404.03 245.662 404.52 245.01C404.793 244.642 404.98 244.219 405.07 243.77C405.118 243.584 405.142 243.392 405.14 243.2V241.92C405.14 240.68 404.34 239.45 402.72 238.5L402.27 238.26C400.483 237.44 398.534 237.032 396.568 237.065C394.602 237.098 392.669 237.571 390.91 238.45C389.26 239.4 388.44 240.63 388.44 241.87Z" fill="#BA68C8"/>
<path opacity="0.1" d="M388.44 241.87V243.12C388.439 243.315 388.463 243.51 388.51 243.7C388.678 244.317 388.976 244.891 389.385 245.383C389.794 245.875 390.304 246.273 390.88 246.55C392.481 247.423 394.267 247.907 396.09 247.96C398.374 248.123 400.659 247.648 402.69 246.59C403.406 246.201 404.03 245.662 404.52 245.01C404.793 244.642 404.98 244.219 405.07 243.77C405.118 243.584 405.142 243.392 405.14 243.2V241.92C405.14 240.68 404.34 239.45 402.72 238.5L402.27 238.26C400.483 237.44 398.534 237.032 396.568 237.065C394.602 237.098 392.669 237.571 390.91 238.45C389.26 239.4 388.44 240.63 388.44 241.87Z" fill="black"/>
<path d="M388.44 241.83C388.44 244.48 392.16 246.64 396.77 246.66C401.38 246.68 405.12 244.55 405.13 241.9C405.14 239.25 401.41 237.08 396.8 237.06C392.19 237.04 388.45 239.18 388.44 241.83Z" fill="#BA68C8"/>
<path d="M393.91 236.91V241.23C393.9 241.296 393.9 241.364 393.91 241.43C393.967 241.646 394.069 241.847 394.211 242.02C394.352 242.192 394.529 242.332 394.73 242.43C395.285 242.737 395.906 242.905 396.54 242.92C397.33 242.973 398.119 242.807 398.82 242.44C399.068 242.306 399.286 242.122 399.46 241.9C399.552 241.771 399.617 241.625 399.65 241.47C399.655 241.403 399.655 241.337 399.65 241.27V236.93C399.627 236.677 399.537 236.434 399.389 236.227C399.242 236.019 399.042 235.855 398.81 235.75L398.65 235.67C398.033 235.383 397.359 235.239 396.678 235.249C395.997 235.26 395.328 235.424 394.72 235.73C394.495 235.841 394.302 236.007 394.16 236.214C394.019 236.421 393.932 236.66 393.91 236.91Z" fill="#BA68C8"/>
<path opacity="0.1" d="M393.91 236.91V241.23C393.9 241.296 393.9 241.364 393.91 241.43C393.967 241.646 394.069 241.847 394.211 242.02C394.352 242.192 394.529 242.332 394.73 242.43C395.285 242.737 395.906 242.905 396.54 242.92C397.33 242.973 398.119 242.807 398.82 242.44C399.068 242.306 399.286 242.122 399.46 241.9C399.552 241.771 399.617 241.625 399.65 241.47C399.655 241.403 399.655 241.337 399.65 241.27V236.93C399.627 236.677 399.537 236.434 399.389 236.227C399.242 236.019 399.042 235.855 398.81 235.75L398.65 235.67C398.033 235.383 397.359 235.239 396.678 235.249C395.997 235.26 395.328 235.424 394.72 235.73C394.495 235.841 394.302 236.007 394.16 236.214C394.019 236.421 393.932 236.66 393.91 236.91Z" fill="black"/>
<path d="M393.91 236.89C393.91 237.81 395.2 238.56 396.8 238.57C398.4 238.58 399.69 237.83 399.7 236.92C399.71 236.01 398.41 235.25 396.81 235.24C395.21 235.23 393.92 236 393.91 236.89Z" fill="#BA68C8"/>
<path opacity="0.5" d="M395.78 236.9C395.78 237.23 396.24 237.49 396.78 237.49C397.32 237.49 397.78 237.23 397.78 236.91C397.78 236.59 397.32 236.32 396.78 236.31C396.24 236.3 395.78 236.57 395.78 236.9Z" fill="#BA68C8"/>
<path opacity="0.3" d="M395.78 236.9C395.78 237.23 396.24 237.49 396.78 237.49C397.32 237.49 397.78 237.23 397.78 236.91C397.78 236.59 397.32 236.32 396.78 236.31C396.24 236.3 395.78 236.57 395.78 236.9Z" fill="black"/>
<path d="M339.78 68.6L267.24 110.49C266.914 110.703 266.643 110.989 266.448 111.326C266.254 111.663 266.141 112.041 266.12 112.43V142.59C266.141 142.978 266.254 143.356 266.451 143.692C266.647 144.028 266.921 144.312 267.25 144.52L271.25 146.77C271.598 146.943 271.981 147.033 272.37 147.033C272.758 147.033 273.142 146.943 273.49 146.77L346 104.86C346.326 104.65 346.598 104.365 346.792 104.03C346.987 103.694 347.099 103.317 347.12 102.93V72.76C347.099 72.3726 346.987 71.9956 346.792 71.6601C346.598 71.3245 346.326 71.04 346 70.83L342 68.59C341.654 68.4213 341.274 68.3345 340.889 68.3362C340.504 68.3379 340.124 68.4282 339.78 68.6Z" fill="#BA68C8"/>
<path d="M272.38 146.11V116C272.391 115.601 272.499 115.21 272.694 114.862C272.889 114.514 273.165 114.218 273.5 114L346 72.1199C346.62 71.7599 347.12 72.0499 347.12 72.7599V102.93C347.099 103.317 346.987 103.694 346.792 104.03C346.598 104.365 346.326 104.65 346 104.86L273.46 146.76C272.88 147.11 272.38 146.83 272.38 146.11Z" fill="#BA68C8"/>
<path opacity="0.2" d="M273.5 146.76C273.151 146.93 272.768 147.019 272.38 147.019C271.992 147.019 271.609 146.93 271.26 146.76L267.26 144.51C266.933 144.303 266.659 144.02 266.463 143.686C266.266 143.353 266.152 142.977 266.13 142.59V112.43C266.146 112.025 266.271 111.631 266.49 111.29L272.72 114.85C272.517 115.182 272.403 115.561 272.39 115.95V146.11C272.38 146.76 272.84 147.14 273.5 146.76Z" fill="black"/>
<path opacity="0.4" d="M347.15 72.5599C347.06 71.9899 346.6 71.7899 346.04 72.1099L273.5 114C273.167 114.205 272.894 114.495 272.71 114.84L266.47 111.28C266.657 110.954 266.921 110.679 267.24 110.48L339.79 68.5999C340.137 68.4226 340.521 68.3302 340.91 68.3302C341.299 68.3302 341.683 68.4226 342.03 68.5999L346.03 70.8399C346.328 71.0306 346.582 71.2826 346.775 71.5792C346.969 71.8758 347.096 72.2101 347.15 72.5599Z" fill="white"/>
<path d="M263.06 136C262.35 135.58 257.06 132.62 256.92 132.52C256.781 132.445 256.662 132.339 256.573 132.21C256.483 132.08 256.425 131.932 256.404 131.776C256.382 131.62 256.398 131.461 256.449 131.312C256.501 131.164 256.587 131.029 256.7 130.92L266.22 123.04L272.38 126.54L262.87 134.43C262.77 134.541 262.695 134.673 262.65 134.816C262.604 134.959 262.59 135.109 262.608 135.258C262.626 135.407 262.676 135.55 262.754 135.678C262.832 135.806 262.936 135.916 263.06 136Z" fill="#BA68C8"/>
<path opacity="0.1" d="M263.06 136C262.35 135.58 257.06 132.62 256.92 132.52C256.781 132.445 256.662 132.339 256.573 132.21C256.483 132.08 256.425 131.932 256.404 131.776C256.382 131.62 256.398 131.461 256.449 131.312C256.501 131.164 256.587 131.029 256.7 130.92L266.22 123.04L272.38 126.54L262.87 134.43C262.77 134.541 262.695 134.673 262.65 134.816C262.604 134.959 262.59 135.109 262.608 135.258C262.626 135.407 262.676 135.55 262.754 135.678C262.832 135.806 262.936 135.916 263.06 136Z" fill="black"/>
<path d="M272.38 126.5L262.86 134.38C262.723 134.516 262.627 134.688 262.586 134.877C262.544 135.065 262.558 135.262 262.626 135.442C262.693 135.623 262.812 135.781 262.967 135.896C263.122 136.01 263.307 136.078 263.5 136.09L272.38 135.09V126.5Z" fill="#BA68C8"/>
<path d="M278.08 123.7C278.017 123.566 277.993 123.417 278.01 123.27C278.029 123.096 278.08 122.926 278.16 122.77L280.95 117.35L281.2 116.88C281.281 116.725 281.402 116.594 281.55 116.5L283.13 115.59C283.146 115.573 283.165 115.559 283.187 115.549C283.208 115.54 283.231 115.535 283.255 115.535C283.278 115.535 283.302 115.54 283.323 115.549C283.345 115.559 283.364 115.573 283.38 115.59C283.456 115.701 283.492 115.835 283.48 115.97V130.88C283.481 131.052 283.447 131.222 283.38 131.38C283.336 131.512 283.247 131.625 283.13 131.7L281.43 132.7C281.396 132.732 281.351 132.75 281.305 132.75C281.258 132.75 281.213 132.732 281.18 132.7C281.103 132.589 281.068 132.454 281.08 132.32V122.22L279.53 125.22C279.508 125.281 279.473 125.336 279.429 125.383C279.384 125.429 279.33 125.466 279.27 125.49C279.18 125.49 279.1 125.49 279.04 125.39L278.08 123.7Z" fill="#FAFAFA"/>
<path d="M288.05 128.28C288.051 128.452 288.017 128.622 287.95 128.78C287.906 128.912 287.817 129.025 287.7 129.1L286 130.1C285.98 130.113 285.958 130.122 285.935 130.127C285.912 130.131 285.888 130.131 285.865 130.127C285.841 130.122 285.819 130.113 285.8 130.1C285.78 130.087 285.763 130.07 285.75 130.05C285.674 129.942 285.639 129.811 285.65 129.68V126.68C285.649 126.508 285.683 126.338 285.75 126.18C285.794 126.048 285.883 125.935 286 125.86L287.7 124.86C287.734 124.828 287.778 124.809 287.825 124.809C287.872 124.809 287.916 124.828 287.95 124.86C288.027 124.971 288.062 125.105 288.05 125.24V128.28Z" fill="#FAFAFA"/>
<path d="M292.43 125.75C292.428 125.922 292.391 126.093 292.32 126.25C292.273 126.38 292.189 126.495 292.08 126.58L290.37 127.58C290.338 127.612 290.295 127.629 290.25 127.629C290.205 127.629 290.162 127.612 290.13 127.58C290.049 127.47 290.01 127.336 290.02 127.2V124.2C290.022 124.027 290.059 123.857 290.13 123.7C290.172 123.567 290.256 123.451 290.37 123.37L292.08 122.37C292.112 122.338 292.155 122.32 292.2 122.32C292.245 122.32 292.288 122.338 292.32 122.37C292.401 122.479 292.44 122.614 292.43 122.75V125.75Z" fill="#FAFAFA"/>
<path d="M296.8 123.23C296.801 123.402 296.767 123.572 296.7 123.73C296.656 123.862 296.567 123.975 296.45 124.05L294.75 125.05C294.716 125.082 294.672 125.1 294.625 125.1C294.578 125.1 294.534 125.082 294.5 125.05C294.423 124.939 294.388 124.804 294.4 124.67V121.67C294.398 121.498 294.432 121.328 294.5 121.17C294.548 121.037 294.635 120.922 294.75 120.84L296.45 119.84C296.485 119.81 296.529 119.793 296.575 119.793C296.621 119.793 296.665 119.81 296.7 119.84C296.776 119.952 296.811 120.086 296.8 120.22V123.23Z" fill="#FAFAFA"/>
<path d="M306 107.59C305.998 108.034 305.971 108.479 305.92 108.92C305.865 109.382 305.778 109.84 305.66 110.29C305.523 110.783 305.356 111.267 305.16 111.74C304.96 112.24 304.71 112.74 304.42 113.33L302.6 116.82L305.86 114.94C305.892 114.908 305.935 114.89 305.98 114.89C306.025 114.89 306.068 114.908 306.1 114.94C306.179 115.05 306.218 115.184 306.21 115.32V117.77C306.207 117.942 306.17 118.112 306.1 118.27C306.056 118.399 305.972 118.511 305.86 118.59L299 122.59C298.966 122.622 298.922 122.64 298.875 122.64C298.828 122.64 298.783 122.622 298.75 122.59C298.678 122.477 298.643 122.344 298.65 122.21V120.21C298.652 119.948 298.683 119.686 298.74 119.43C298.79 119.152 298.888 118.884 299.03 118.64L302.91 111.45C303.16 111.003 303.352 110.526 303.48 110.03C303.553 109.702 303.594 109.367 303.6 109.03C303.607 108.887 303.607 108.743 303.6 108.6C303.573 108.431 303.522 108.266 303.45 108.11C303.383 107.971 303.264 107.864 303.12 107.81C303.02 107.785 302.917 107.783 302.816 107.804C302.716 107.824 302.621 107.868 302.54 107.93C302.3 108.065 302.097 108.258 301.95 108.49C301.808 108.71 301.69 108.944 301.6 109.19C301.516 109.407 301.453 109.631 301.41 109.86C301.41 110.08 301.35 110.23 301.33 110.34C301.306 110.533 301.238 110.718 301.13 110.88C301.043 110.997 300.935 111.095 300.81 111.17L299.21 112.09C299.182 112.115 299.147 112.128 299.11 112.128C299.073 112.128 299.037 112.115 299.01 112.09C298.951 111.998 298.923 111.889 298.93 111.78C298.942 111.084 299.019 110.391 299.16 109.71C299.31 108.982 299.535 108.272 299.83 107.59C300.12 106.905 300.496 106.259 300.95 105.67C301.376 105.107 301.91 104.635 302.52 104.28C302.969 103.981 303.501 103.83 304.04 103.85C304.463 103.894 304.852 104.098 305.13 104.42C305.456 104.807 305.686 105.266 305.8 105.76C305.941 106.36 306.008 106.974 306 107.59Z" fill="#FAFAFA"/>
<path d="M310.47 115.33C310.472 115.502 310.437 115.672 310.37 115.83C310.325 115.965 310.237 116.081 310.12 116.16L308.42 117.16C308.386 117.192 308.342 117.21 308.295 117.21C308.248 117.21 308.203 117.192 308.17 117.16C308.093 117.049 308.058 116.914 308.07 116.78V113.78C308.068 113.608 308.102 113.438 308.17 113.28C308.221 113.149 308.307 113.034 308.42 112.95L310.12 111.95C310.153 111.918 310.198 111.899 310.245 111.899C310.292 111.899 310.336 111.918 310.37 111.95C310.446 112.061 310.482 112.195 310.47 112.33V115.33Z" fill="#FAFAFA"/>
<path d="M314.85 112.81C314.847 112.982 314.81 113.152 314.74 113.31C314.696 113.439 314.612 113.551 314.5 113.63L312.8 114.63C312.78 114.643 312.758 114.652 312.735 114.657C312.712 114.661 312.688 114.661 312.665 114.657C312.641 114.652 312.619 114.643 312.6 114.63C312.58 114.617 312.563 114.6 312.55 114.58C312.473 114.469 312.438 114.334 312.45 114.2V111.2C312.449 111.028 312.483 110.858 312.55 110.7C312.598 110.567 312.685 110.452 312.8 110.37L314.5 109.37C314.532 109.338 314.575 109.32 314.62 109.32C314.665 109.32 314.708 109.338 314.74 109.37C314.819 109.48 314.858 109.614 314.85 109.75V112.81Z" fill="#FAFAFA"/>
<path d="M319.22 110.28C319.222 110.452 319.188 110.622 319.12 110.78C319.072 110.913 318.985 111.028 318.87 111.11L317.17 112.11C317.138 112.142 317.095 112.16 317.05 112.16C317.005 112.16 316.962 112.142 316.93 112.11C316.851 112 316.812 111.866 316.82 111.73V108.73C316.822 108.561 316.859 108.394 316.93 108.24C316.968 108.105 317.053 107.988 317.17 107.91L318.87 106.91C318.903 106.878 318.948 106.859 318.995 106.859C319.042 106.859 319.086 106.878 319.12 106.91C319.196 107.021 319.232 107.156 319.22 107.29V110.28Z" fill="#FAFAFA"/>
<path d="M327.94 89.72C327.972 89.6882 328.015 89.6704 328.06 89.6704C328.105 89.6704 328.148 89.6882 328.18 89.72C328.257 89.8312 328.292 89.9655 328.28 90.1V92.55C328.278 92.7238 328.248 92.8961 328.19 93.06C328.13 93.23 328.08 93.38 328.03 93.5L326.45 97.23C326.753 97.1768 327.066 97.2043 327.355 97.3096C327.645 97.4148 327.902 97.5943 328.1 97.83C328.601 98.5731 328.828 99.4679 328.74 100.36C328.782 101.923 328.438 103.471 327.74 104.87C327.104 106.121 326.122 107.162 324.91 107.87C324.411 108.19 323.841 108.382 323.25 108.43C322.821 108.463 322.393 108.347 322.04 108.1C321.699 107.844 321.436 107.497 321.28 107.1C321.095 106.618 321 106.106 321 105.59C321.001 105.45 321.029 105.311 321.08 105.18C321.123 105.075 321.192 104.982 321.28 104.91L322.92 103.97C323.1 103.86 323.24 103.86 323.34 103.97L323.65 104.26C323.783 104.368 323.941 104.441 324.11 104.47C324.396 104.482 324.678 104.398 324.91 104.23C325.316 103.979 325.659 103.636 325.91 103.23C326.187 102.813 326.33 102.321 326.32 101.82C326.32 101.28 326.18 100.97 325.91 100.88C325.737 100.846 325.559 100.849 325.387 100.887C325.215 100.924 325.053 100.997 324.91 101.1L323.83 101.73C323.796 101.762 323.752 101.78 323.705 101.78C323.658 101.78 323.614 101.762 323.58 101.73C323.503 101.619 323.468 101.484 323.48 101.35V99.35C323.481 99.1761 323.511 99.0036 323.57 98.84C323.63 98.66 323.69 98.5 323.75 98.36L325.12 95L321.73 97C321.696 97.0324 321.652 97.0505 321.605 97.0505C321.558 97.0505 321.514 97.0324 321.48 97C321.403 96.8888 321.368 96.7544 321.38 96.62V94.13C321.378 93.9582 321.412 93.7879 321.48 93.63C321.524 93.4953 321.612 93.3793 321.73 93.3L327.94 89.72Z" fill="#FAFAFA"/>
<path d="M333 102.31C333.002 102.482 332.967 102.652 332.9 102.81C332.852 102.943 332.765 103.058 332.65 103.14L330.95 104.14C330.918 104.172 330.875 104.19 330.83 104.19C330.785 104.19 330.742 104.172 330.71 104.14C330.629 104.031 330.59 103.896 330.6 103.76V100.76C330.602 100.588 330.639 100.417 330.71 100.26C330.752 100.127 330.836 100.011 330.95 99.93L332.65 98.93C332.683 98.8976 332.728 98.8795 332.775 98.8795C332.822 98.8795 332.866 98.8976 332.9 98.93C332.976 99.0412 333.012 99.1756 333 99.31V102.31Z" fill="#FAFAFA"/>
<path d="M337.4 99.7899C337.396 99.9611 337.362 100.13 337.3 100.29C337.252 100.42 337.165 100.532 337.05 100.61L335.35 101.61C335.334 101.627 335.315 101.641 335.293 101.65C335.272 101.66 335.248 101.665 335.225 101.665C335.201 101.665 335.178 101.66 335.157 101.65C335.135 101.641 335.116 101.627 335.1 101.61C335.023 101.499 334.988 101.364 335 101.23V98.2299C334.998 98.0581 335.032 97.8879 335.1 97.7299C335.147 97.5969 335.235 97.4818 335.35 97.3999L337.05 96.3999C337.084 96.3697 337.129 96.353 337.175 96.353C337.221 96.353 337.265 96.3697 337.3 96.3999C337.371 96.5135 337.406 96.6461 337.4 96.7799V99.7899Z" fill="#FAFAFA"/>
<path d="M341.77 97.2599C341.772 97.4317 341.738 97.602 341.67 97.7599C341.622 97.8902 341.539 98.0046 341.43 98.0899L339.72 99.0899C339.688 99.1217 339.645 99.1395 339.6 99.1395C339.555 99.1395 339.512 99.1217 339.48 99.0899C339.401 98.9797 339.362 98.8455 339.37 98.7099V95.7099C339.373 95.5376 339.41 95.3676 339.48 95.2099C339.524 95.0807 339.608 94.9687 339.72 94.8899L341.43 93.8899C341.462 93.8582 341.505 93.8403 341.55 93.8403C341.595 93.8403 341.638 93.8582 341.67 93.8899C341.747 94.0011 341.782 94.1355 341.77 94.2699V97.2599Z" fill="#FAFAFA"/>
<g opacity="0.3">
<path opacity="0.3" d="M149.81 277.71C149.764 277.72 149.716 277.72 149.67 277.71L143.94 276.09C143.837 276.063 143.741 276.015 143.657 275.949C143.574 275.883 143.504 275.8 143.454 275.707C143.403 275.613 143.372 275.51 143.363 275.404C143.354 275.298 143.366 275.191 143.4 275.09C143.429 274.988 143.477 274.892 143.544 274.809C143.61 274.726 143.692 274.657 143.785 274.605C143.878 274.554 143.98 274.522 144.086 274.511C144.191 274.5 144.298 274.51 144.4 274.54L150.13 276.16C150.325 276.209 150.493 276.331 150.602 276.5C150.71 276.67 150.75 276.874 150.713 277.071C150.676 277.269 150.565 277.445 150.403 277.563C150.241 277.682 150.039 277.735 149.84 277.71H149.81Z" fill="black"/>
<path opacity="0.3" d="M143.94 282.15C143.759 282.126 143.591 282.04 143.465 281.906C143.339 281.773 143.263 281.601 143.249 281.419C143.235 281.236 143.284 281.054 143.388 280.903C143.492 280.753 143.644 280.642 143.82 280.59L149.58 279.14C149.683 279.107 149.792 279.095 149.9 279.107C150.007 279.118 150.111 279.151 150.206 279.205C150.3 279.258 150.381 279.331 150.446 279.418C150.51 279.505 150.556 279.604 150.58 279.71C150.612 279.813 150.622 279.922 150.61 280.029C150.598 280.136 150.565 280.24 150.511 280.333C150.458 280.427 150.386 280.509 150.3 280.573C150.213 280.638 150.115 280.685 150.01 280.71L144.24 282.17C144.14 282.177 144.039 282.17 143.94 282.15Z" fill="black"/>
<path opacity="0.3" d="M146.84 287.47C146.651 287.449 146.475 287.364 146.34 287.23C146.193 287.081 146.111 286.88 146.111 286.67C146.111 286.461 146.193 286.26 146.34 286.11L150.61 281.97C150.683 281.897 150.769 281.838 150.864 281.798C150.96 281.759 151.062 281.738 151.165 281.738C151.268 281.738 151.371 281.759 151.466 281.798C151.561 281.838 151.647 281.897 151.72 281.97C151.794 282.044 151.852 282.131 151.892 282.227C151.932 282.323 151.953 282.426 151.953 282.53C151.953 282.634 151.932 282.737 151.892 282.833C151.852 282.929 151.794 283.017 151.72 283.09L147.45 287.24C147.37 287.319 147.274 287.38 147.169 287.419C147.064 287.459 146.952 287.476 146.84 287.47Z" fill="black"/>
<path opacity="0.3" d="M152 290.62H151.86C151.758 290.591 151.662 290.542 151.579 290.476C151.496 290.41 151.427 290.328 151.375 290.235C151.324 290.142 151.292 290.04 151.281 289.934C151.27 289.829 151.28 289.722 151.31 289.62L152.93 283.9C152.957 283.798 153.003 283.703 153.067 283.619C153.131 283.536 153.211 283.466 153.302 283.414C153.393 283.361 153.494 283.328 153.598 283.315C153.703 283.302 153.808 283.31 153.91 283.339C154.011 283.368 154.105 283.416 154.187 283.482C154.27 283.547 154.338 283.629 154.388 283.721C154.439 283.813 154.47 283.915 154.481 284.019C154.491 284.124 154.481 284.229 154.45 284.33L152.83 290.05C152.781 290.228 152.671 290.383 152.519 290.487C152.367 290.591 152.183 290.638 152 290.62Z" fill="black"/>
</g>
<path d="M308.23 201.82L293.94 210.07L262.55 214.61C262.55 214.61 239.61 180.19 236.1 174.78C232.59 169.37 228.49 165.9 218.97 165.91L220.77 193.37C221.07 194.25 240.04 217.63 252.55 230.37C256.97 234.86 259.69 236 266.6 234.09C284.23 229.2 305.6 214.71 307.32 211.09C309.58 206.36 308.06 201.91 308.23 201.82Z" fill="#FFA8A7"/>
<path d="M302.34 184.41C304.22 178.29 311.87 173.22 319.03 175.22C320.16 175.542 321.246 176.006 322.26 176.6C329.2 180.6 334.83 190.35 334.83 198.37C334.849 199.725 334.657 201.074 334.26 202.37C332.38 208.5 324.73 213.54 317.57 211.53C316.44 211.214 315.358 210.75 314.35 210.15C307.41 206.15 301.78 196.4 301.78 188.38C301.763 187.036 301.952 185.697 302.34 184.41Z" fill="#455A64"/>
<path d="M314.36 210.13C307.42 206.13 301.79 196.38 301.79 188.36C301.79 180.34 307.42 177.09 314.36 181.1C321.3 185.11 326.93 194.85 326.93 202.87C326.93 210.89 321.3 214.14 314.36 210.13Z" fill="#37474F"/>
<path d="M314.36 190C311.69 188.46 309.53 189.71 309.53 192.79C309.621 194.468 310.105 196.101 310.944 197.557C311.783 199.013 312.953 200.251 314.36 201.17C317.03 202.71 319.2 201.46 319.2 198.38C319.109 196.701 318.624 195.067 317.783 193.611C316.942 192.155 315.769 190.918 314.36 190Z" fill="#455A64"/>
<path d="M312.71 194.62C312.74 195.194 312.905 195.754 313.192 196.252C313.479 196.751 313.879 197.175 314.36 197.49C314.52 197.602 314.704 197.674 314.897 197.7C315.09 197.726 315.286 197.705 315.47 197.64L315.59 197.57C315.734 197.447 315.847 197.294 315.922 197.12C315.996 196.947 316.03 196.758 316.02 196.57C315.986 195.995 315.819 195.436 315.53 194.938C315.242 194.44 314.841 194.016 314.36 193.7C314.201 193.586 314.017 193.512 313.824 193.486C313.63 193.46 313.433 193.482 313.25 193.55L313.13 193.62C312.988 193.743 312.876 193.897 312.803 194.071C312.73 194.244 312.698 194.432 312.71 194.62Z" fill="#37474F"/>
<path d="M286.15 210C286.182 210.574 286.348 211.133 286.634 211.631C286.921 212.129 287.32 212.554 287.8 212.87C288.017 213.004 288.265 213.08 288.52 213.09C288.714 213.088 288.905 213.032 289.07 212.93L315.47 197.69L315.59 197.62C315.734 197.497 315.847 197.344 315.922 197.17C315.996 196.997 316.03 196.808 316.02 196.62C315.986 196.045 315.819 195.486 315.531 194.988C315.242 194.49 314.841 194.066 314.36 193.75C314.202 193.636 314.017 193.562 313.824 193.536C313.63 193.51 313.433 193.532 313.25 193.6L313.13 193.67L286.74 208.91C286.548 209.016 286.39 209.176 286.286 209.369C286.181 209.562 286.134 209.781 286.15 210Z" fill="#FAFAFA"/>
<path d="M260.24 208.71C262.11 202.59 269.77 197.52 276.93 199.52C278.058 199.837 279.14 200.297 280.15 200.89C287.09 204.89 292.72 214.64 292.72 222.66C292.738 224.014 292.549 225.363 292.16 226.66C290.29 232.79 282.63 237.83 275.47 235.82C274.346 235.502 273.267 235.041 272.26 234.45C265.31 230.45 259.69 220.69 259.69 212.67C259.672 211.33 259.857 209.995 260.24 208.71Z" fill="#455A64"/>
<path d="M272.26 234.44C265.31 230.44 259.69 220.68 259.69 212.66C259.69 204.64 265.31 201.4 272.26 205.4C279.21 209.4 284.83 219.15 284.83 227.17C284.83 235.19 279.2 238.44 272.26 234.44Z" fill="#37474F"/>
<path d="M272.26 214.29C269.59 212.75 267.42 214 267.42 217.09C267.512 218.767 267.999 220.399 268.84 221.853C269.68 223.308 270.852 224.543 272.26 225.46C274.93 227 277.09 225.75 277.09 222.67C276.999 220.992 276.515 219.359 275.676 217.903C274.837 216.447 273.666 215.209 272.26 214.29Z" fill="#455A64"/>
<path d="M270.6 218.92C270.632 219.494 270.797 220.053 271.084 220.551C271.37 221.049 271.77 221.474 272.25 221.79C272.41 221.904 272.596 221.978 272.791 222.004C272.987 222.03 273.185 222.008 273.37 221.94L273.49 221.87C273.631 221.746 273.742 221.592 273.815 221.418C273.888 221.245 273.92 221.058 273.91 220.87C273.878 220.295 273.711 219.735 273.422 219.237C273.134 218.738 272.732 218.315 272.25 218C272.093 217.886 271.911 217.812 271.719 217.786C271.527 217.76 271.331 217.782 271.15 217.85L271.03 217.92C270.884 218.041 270.77 218.195 270.695 218.368C270.62 218.542 270.588 218.731 270.6 218.92Z" fill="#37474F"/>
<path d="M266.6 221.23C266.631 221.804 266.796 222.363 267.083 222.862C267.37 223.36 267.769 223.784 268.25 224.1C268.465 224.239 268.714 224.315 268.97 224.32C269.164 224.316 269.354 224.261 269.52 224.16L273.37 221.94L273.49 221.87C273.631 221.746 273.742 221.592 273.815 221.418C273.888 221.245 273.92 221.058 273.91 220.87C273.878 220.295 273.711 219.735 273.423 219.237C273.134 218.738 272.732 218.315 272.25 218C272.093 217.886 271.911 217.812 271.719 217.786C271.527 217.76 271.331 217.782 271.15 217.85L271.03 217.92L267.18 220.14C266.99 220.249 266.835 220.409 266.733 220.601C266.63 220.794 266.584 221.012 266.6 221.23Z" fill="#FAFAFA"/>
<path d="M266.6 221.22C266.631 221.794 266.796 222.353 267.083 222.852C267.37 223.35 267.769 223.774 268.25 224.09C268.409 224.204 268.593 224.278 268.786 224.304C268.98 224.33 269.177 224.308 269.36 224.24L269.48 224.17C269.625 224.049 269.739 223.895 269.814 223.721C269.889 223.547 269.921 223.359 269.91 223.17C269.877 222.595 269.71 222.036 269.422 221.537C269.133 221.039 268.732 220.615 268.25 220.3C268.093 220.187 267.91 220.115 267.718 220.09C267.526 220.066 267.331 220.09 267.15 220.16L267.02 220.23C266.878 220.351 266.766 220.503 266.693 220.675C266.62 220.847 266.588 221.034 266.6 221.22Z" fill="#E0E0E0"/>
<path d="M299.08 218.13C305.14 213.49 310.96 213.53 309.91 202.2C309.02 197.2 307.79 196.85 302.91 194.95C300.76 194.12 297.91 193.49 296.2 195.45C296.008 195.693 295.798 195.92 295.57 196.13C295.068 196.456 294.488 196.642 293.89 196.67C292.749 196.731 291.666 197.191 290.83 197.97C290.26 198.61 290.04 199.51 289.48 200.16C288.945 200.669 288.37 201.134 287.76 201.55C287.319 201.931 286.963 202.4 286.715 202.927C286.467 203.454 286.332 204.028 286.32 204.61C286.364 205.276 286.552 205.924 286.871 206.509C287.191 207.095 287.634 207.603 288.17 208L291.17 206.24C292.43 205.37 295.01 208.44 293.9 210.07C292.18 212.65 299.08 218.13 299.08 218.13Z" fill="#FFA8A7"/>
<path d="M228.37 240.89C230.31 233.04 230.87 213.45 230.87 213.45L174.09 215.16L177.18 227.53C177.693 230.325 177.967 233.159 178 236C178 236 183.51 246.21 199.84 248C209.883 248.953 219.949 246.444 228.37 240.89Z" fill="#FFA8A7"/>
<path d="M230.87 213.45C230.94 214.08 230.55 220.01 230.55 220.01C223.28 226.12 199.99 229.21 175.55 221.08L170.37 201.08C170.37 201.08 187.95 193.36 176.08 167.46L188.84 166.46L211.51 165.89H219C225.118 171.825 230.289 178.665 234.33 186.17C237.27 191.73 241.06 199.84 230.87 213.45Z" fill="#455A64"/>
<path d="M198.77 213.63C188.55 211.02 185.98 204.63 185.25 199.93C185.25 199.93 183.32 213.63 197.94 216.83C213.36 220.19 219.7 207.98 219.7 207.98C219.7 207.98 211.12 216.78 198.77 213.63Z" fill="#37474F"/>
<path d="M111.69 366.09C108.69 368.28 101.78 368.81 95.69 365.95C89.6 363.09 87.05 354.95 88.19 348.66C89.57 340.99 93.36 336.79 94.33 332.18C95.3 327.57 94.33 321.18 95.78 317.06C96.3847 315.478 97.3229 314.045 98.5307 312.858C99.7386 311.671 101.188 310.757 102.78 310.18C103.796 309.787 104.889 309.633 105.974 309.728C107.059 309.824 108.108 310.166 109.04 310.73L110.85 311.79L111.69 366.09Z" fill="#263238"/>
<path d="M118.85 336.84L114.11 351.05C114.11 351.05 117.11 361.2 115.42 363.89C112.92 367.89 108.54 368.6 101.15 366.34C92.69 363.77 90.7 356.12 91.15 350.18C91.74 341.71 99.57 335.34 98.67 327.18C98.24 323.18 98.78 318.7 100.97 315.27C103.42 311.42 107.44 310.7 111.62 311.96C115.19 313.04 118.33 315.29 121.36 317.4C122.232 317.951 123.02 318.624 123.7 319.4C124.245 320.119 124.651 320.933 124.9 321.8C125.448 323.548 125.612 325.393 125.38 327.21C125.16 328.91 124.08 329.9 123.07 331.21L118.85 336.84Z" fill="#37474F"/>
<path d="M139.28 330.11C138.98 329.99 124.5 320.73 122.94 320.04C121.38 319.35 117.55 318.35 113.83 326.93C111.18 333.05 114.99 335.31 114.99 335.31L131.99 345.41L139.28 330.11Z" fill="#FFA8A7"/>
<path d="M114.11 351.05C111.044 349.526 107.653 348.77 104.23 348.85C103.975 348.876 103.718 348.838 103.481 348.74C103.244 348.643 103.034 348.488 102.871 348.291C102.708 348.093 102.596 347.858 102.545 347.607C102.495 347.355 102.506 347.096 102.58 346.85C102.676 346.557 102.856 346.3 103.098 346.109C103.34 345.919 103.633 345.804 103.94 345.78C106.23 345.61 111.79 345.54 115.48 348.58C116.46 350.56 114.11 351.05 114.11 351.05Z" fill="#BA68C8"/>
<path d="M115.84 344.56C112.861 342.873 109.513 341.942 106.09 341.85C105.832 341.861 105.575 341.808 105.342 341.696C105.109 341.584 104.908 341.416 104.755 341.207C104.603 340.998 104.505 340.755 104.469 340.499C104.433 340.243 104.461 339.983 104.55 339.74C104.657 339.453 104.848 339.204 105.097 339.026C105.347 338.848 105.644 338.749 105.95 338.74C108.25 338.68 113.81 338.9 117.34 342.13C118.22 344.18 115.84 344.56 115.84 344.56Z" fill="#BA68C8"/>
<path opacity="0.3" d="M114.11 351.05C111.044 349.526 107.653 348.77 104.23 348.85C103.975 348.876 103.718 348.838 103.481 348.74C103.244 348.643 103.034 348.488 102.871 348.291C102.708 348.093 102.596 347.858 102.545 347.607C102.495 347.355 102.506 347.096 102.58 346.85C102.676 346.557 102.856 346.3 103.098 346.109C103.34 345.919 103.633 345.804 103.94 345.78C106.23 345.61 111.79 345.54 115.48 348.58C116.46 350.56 114.11 351.05 114.11 351.05Z" fill="black"/>
<path opacity="0.3" d="M115.84 344.56C112.861 342.873 109.513 341.942 106.09 341.85C105.832 341.861 105.575 341.808 105.342 341.696C105.109 341.584 104.908 341.416 104.755 341.207C104.603 340.998 104.505 340.755 104.469 340.499C104.433 340.243 104.461 339.983 104.55 339.74C104.657 339.453 104.848 339.204 105.097 339.026C105.347 338.848 105.644 338.749 105.95 338.74C108.25 338.68 113.81 338.9 117.34 342.13C118.22 344.18 115.84 344.56 115.84 344.56Z" fill="black"/>
<path d="M263.42 367.63L282.22 360.17C281.9 355.32 280.71 348.86 281.95 336.17L260.62 332.1V353.47L263.42 367.63Z" fill="#FFA8A7"/>
<path d="M317.08 384.14C317.585 385.657 317.492 387.309 316.82 388.76C316.18 390.11 309.13 394.08 299.62 393.44C292.584 392.941 285.81 390.569 280 386.57C276.37 384.17 272.6 383.72 267.89 383.45C263.18 383.18 257 380.83 255.96 378.63C254.92 376.43 256.12 372.63 256.12 372.63L317.08 384.14Z" fill="#263238"/>
<path d="M278.71 354.47L279.46 354.31C279.868 354.202 280.293 354.178 280.71 354.24C281.174 354.383 281.586 354.661 281.89 355.04C282.821 356.229 283.634 357.505 284.32 358.85C286.32 362.1 290.49 364.79 295.06 367.25C298.17 368.92 301.21 370.25 304.42 371.66C307.63 373.07 312.03 374.03 314.59 375.75C318.33 378.27 318.81 384.59 314.59 387.08C310.92 389.23 301.27 391.57 291.15 388.7C285.64 387.14 279.52 381.25 272.28 380.7C267.68 380.34 258.98 379.05 256.01 375.56C254.92 374.01 256.38 369.09 257.58 364.85C258.89 360.22 259.38 352.06 260.91 352.47C260.91 352.47 260.49 353.62 261.09 354.24C261.69 354.86 263.81 356.09 264.42 356.62C265.487 357.673 266.352 358.914 266.97 360.28C267.221 360.896 267.687 361.4 268.28 361.7C269.05 361.99 269.63 361.5 270.28 361.19C271.136 360.81 272.099 360.743 273 361C272.91 360.086 272.749 359.18 272.52 358.29C272.413 358.009 272.389 357.704 272.45 357.41C272.567 357.13 272.775 356.897 273.04 356.75C274.75 355.602 276.681 354.826 278.71 354.47Z" fill="#37474F"/>
<path d="M290.77 364.75C290.438 364.117 289.953 363.576 289.36 363.178C288.766 362.78 288.082 362.537 287.37 362.47C285.27 362.08 281.58 363.63 279.28 365.47C279.061 365.647 278.89 365.876 278.78 366.135C278.67 366.394 278.626 366.676 278.65 366.956C278.675 367.237 278.768 367.507 278.922 367.743C279.075 367.979 279.284 368.174 279.53 368.31C279.844 368.489 280.206 368.565 280.566 368.525C280.925 368.486 281.263 368.333 281.53 368.09C284.059 365.818 287.373 364.62 290.77 364.75Z" fill="#BA68C8"/>
<path d="M297.26 368.38C296.805 367.743 296.205 367.223 295.51 366.863C294.814 366.503 294.043 366.313 293.26 366.31C293.26 366.31 287.79 366.46 284.41 369.62C284.201 369.792 284.037 370.012 283.932 370.261C283.826 370.51 283.783 370.781 283.806 371.05C283.828 371.32 283.916 371.58 284.061 371.808C284.207 372.036 284.405 372.226 284.64 372.36C284.939 372.524 285.282 372.592 285.62 372.552C285.959 372.513 286.277 372.369 286.53 372.14C287.924 370.751 289.611 369.692 291.468 369.042C293.325 368.391 295.304 368.165 297.26 368.38Z" fill="#BA68C8"/>
<path d="M304.42 371.66C303.899 371.065 303.256 370.589 302.535 370.265C301.814 369.94 301.031 369.775 300.24 369.78C300.24 369.78 295.14 369.97 291.76 373.13C291.553 373.303 291.391 373.523 291.287 373.772C291.183 374.021 291.141 374.291 291.163 374.56C291.186 374.829 291.273 375.088 291.417 375.316C291.56 375.544 291.757 375.734 291.99 375.87C292.288 376.036 292.631 376.104 292.97 376.064C293.31 376.025 293.628 375.88 293.88 375.65C295.205 374.211 296.848 373.1 298.678 372.408C300.508 371.715 302.474 371.459 304.42 371.66Z" fill="#BA68C8"/>
<path opacity="0.3" d="M290.77 364.75C290.438 364.117 289.953 363.576 289.36 363.178C288.766 362.78 288.082 362.537 287.37 362.47C285.27 362.08 281.58 363.63 279.28 365.47C279.061 365.647 278.89 365.876 278.78 366.135C278.67 366.394 278.626 366.676 278.65 366.956C278.675 367.237 278.768 367.507 278.922 367.743C279.075 367.979 279.284 368.174 279.53 368.31C279.844 368.489 280.206 368.565 280.566 368.525C280.925 368.486 281.263 368.333 281.53 368.09C284.059 365.818 287.373 364.62 290.77 364.75Z" fill="black"/>
<path opacity="0.3" d="M297.26 368.38C296.805 367.743 296.205 367.223 295.51 366.863C294.814 366.503 294.043 366.313 293.26 366.31C293.26 366.31 287.79 366.46 284.41 369.62C284.201 369.792 284.037 370.012 283.932 370.261C283.826 370.51 283.783 370.781 283.806 371.05C283.828 371.32 283.916 371.58 284.061 371.808C284.207 372.036 284.405 372.226 284.64 372.36C284.939 372.524 285.282 372.592 285.62 372.552C285.959 372.513 286.277 372.369 286.53 372.14C287.924 370.751 289.611 369.692 291.468 369.042C293.325 368.391 295.304 368.165 297.26 368.38Z" fill="black"/>
<path opacity="0.3" d="M304.42 371.66C303.899 371.065 303.256 370.589 302.535 370.265C301.814 369.94 301.031 369.775 300.24 369.78C300.24 369.78 295.14 369.97 291.76 373.13C291.553 373.303 291.391 373.523 291.287 373.772C291.183 374.021 291.141 374.291 291.163 374.56C291.186 374.829 291.273 375.088 291.417 375.316C291.56 375.544 291.757 375.734 291.99 375.87C292.288 376.036 292.631 376.104 292.97 376.064C293.31 376.025 293.628 375.88 293.88 375.65C295.205 374.211 296.848 373.1 298.678 372.408C300.508 371.715 302.474 371.459 304.42 371.66Z" fill="black"/>
<path d="M276.27 260.36C262 257.15 227.82 250 227.82 250L228.37 240.88C216 247.29 190 245.48 178 236L176.1 245.67C171.552 251.116 167.615 257.045 164.36 263.35C161.61 268.78 157.03 277.25 161.59 296.98C164.27 308.56 167.85 339.07 167.85 339.07L132.85 326.18C132.85 326.18 129.85 326.69 127.31 333.24C125.82 337.13 125.31 340.86 126.83 342.79C139.63 352.89 160.37 369.41 181.33 378.67C195.33 384.03 202.77 372.26 203.46 367.9C206.08 351.2 209.12 297.54 209.12 297.54L255.86 296C254.32 304.86 260.62 339.48 260.62 339.48C260.62 339.48 272.13 344.48 281.67 339.36C281.67 339.36 288.05 299.52 288.67 286.23C289.34 271.44 290.1 263.46 276.27 260.36Z" fill="#BA68C8"/>
<path opacity="0.15" d="M255.86 296C255.86 293.61 257.45 285.25 262.86 280.81C262.86 280.81 255.44 282.14 252.05 296.12L255.86 296Z" fill="black"/>
<path opacity="0.15" d="M167.85 339.05C167.85 339.05 168.85 352.23 171.36 358.64C171.36 358.64 165.05 347.24 164.36 337.76L167.85 339.05Z" fill="black"/>
<path opacity="0.15" d="M227.81 250L228.37 240.89C216 247.29 190 245.48 178 236L176.1 245.67C176.19 245.77 183.89 253.67 203.91 254.76C223.93 255.85 227.81 250 227.81 250Z" fill="black"/>
<path opacity="0.15" d="M209.15 297.52C208.982 292.57 207.809 287.705 205.703 283.222C203.597 278.739 200.602 274.73 196.9 271.44C196.9 271.44 207.66 276.44 211.26 292.27C211.26 292.27 219.26 288.54 223.44 277.36C223.44 277.36 222.16 288.54 215.72 294.89L235.14 296.69L209.15 297.52Z" fill="black"/>
<path d="M202.85 95.27C194.562 95.27 186.614 98.5624 180.753 104.423C174.892 110.283 171.6 118.232 171.6 126.52C171.6 134.809 174.892 142.759 180.752 148.621C186.613 154.483 194.561 157.777 202.85 157.78C211.14 157.777 219.09 154.483 224.951 148.621C230.813 142.759 234.107 134.81 234.11 126.52C234.107 118.231 230.813 110.283 224.951 104.422C219.089 98.5621 211.139 95.27 202.85 95.27Z" fill="#263238"/>
<path d="M170.25 114.31C171.38 114.258 172.513 114.322 173.63 114.5C174.007 114.521 174.364 114.682 174.63 114.95C174.781 115.18 174.871 115.445 174.89 115.72C175.136 117.456 174.975 119.226 174.42 120.89C173.97 122.04 172.6 122.64 171.73 123.48C168.35 126.75 168.08 132.19 169.41 136.7C170.74 141.21 173.41 145.23 175.14 149.58C176.87 153.93 177.79 159.2 175.34 163.58C174.34 165.27 172.66 166.58 172.87 168.58C173.11 171.03 175.25 173.38 176.17 175.58C177.174 178.203 177.518 181.033 177.17 183.82C176.89 187.275 175.588 190.568 173.43 193.28C171.784 195.195 169.661 196.64 167.276 197.469C164.891 198.298 162.329 198.481 159.85 198C158.805 197.818 157.816 197.397 156.96 196.77C155.49 195.59 154.91 193.66 154.11 191.95C151.53 186.42 146.11 182.4 144.45 176.53C142.71 170.32 145.69 163.78 149.35 158.47C151.06 155.99 152.97 153.55 153.81 150.66C154.94 146.75 153.95 142.58 153.69 138.52C153.427 134.543 153.87 130.552 155 126.73C155.83 123.97 157.09 120.79 159.25 118.81C162.278 116.071 166.17 114.479 170.25 114.31Z" fill="#263238"/>
<path d="M222.44 109.57C225.87 111.62 230.07 120.27 229.58 138.37C229.16 153.71 224.17 157.48 221.67 158.56C219.17 159.64 214.36 158.96 209.67 158.16V167.37C209.67 167.37 216.11 174.91 215.67 179.13C215.23 183.35 206.31 184.32 200.27 180.13C194.23 175.94 189.15 168 189.15 168L189.34 146.82C189.34 146.82 186.57 149.49 181.92 145.38C178.07 141.99 176.8 136.3 179.82 133.26C182.84 130.22 188.39 131.08 190.5 135.44C190.5 135.44 197.96 135.74 207.93 130.32C211.813 128.25 215.152 125.291 217.673 121.685C220.195 118.079 221.828 113.928 222.44 109.57Z" fill="#FFA8A7"/>
<path d="M212.47 134.45C212.472 134.829 212.362 135.2 212.154 135.517C211.946 135.834 211.649 136.083 211.301 136.232C210.952 136.382 210.568 136.425 210.195 136.358C209.822 136.29 209.477 136.114 209.204 135.851C208.93 135.589 208.74 135.251 208.657 134.881C208.574 134.511 208.602 134.125 208.737 133.771C208.872 133.417 209.108 133.11 209.417 132.89C209.725 132.669 210.091 132.544 210.47 132.53C210.987 132.53 211.484 132.729 211.857 133.087C212.23 133.445 212.449 133.934 212.47 134.45Z" fill="#263238"/>
<g style="mix-blend-mode:multiply" opacity="0.5">
<g style="mix-blend-mode:multiply" opacity="0.5">
<path d="M212.93 147.45L217.4 148.9C217.319 149.2 217.178 149.481 216.985 149.725C216.793 149.969 216.553 150.172 216.281 150.322C216.008 150.471 215.708 150.564 215.399 150.594C215.089 150.625 214.777 150.593 214.48 150.5C213.878 150.29 213.38 149.855 213.092 149.287C212.803 148.718 212.745 148.06 212.93 147.45Z" fill="#F28F8F"/>
</g>
</g>
<path d="M228.31 128.59L224.42 125.86C224.585 125.598 224.801 125.373 225.055 125.198C225.31 125.023 225.597 124.901 225.9 124.84C226.204 124.779 226.516 124.781 226.818 124.844C227.121 124.908 227.407 125.032 227.66 125.21C228.183 125.581 228.542 126.14 228.663 126.77C228.784 127.399 228.658 128.051 228.31 128.59Z" fill="#263238"/>
<path d="M227.39 133.11C227.392 133.489 227.282 133.86 227.074 134.177C226.866 134.494 226.569 134.743 226.221 134.893C225.872 135.042 225.488 135.085 225.115 135.018C224.742 134.95 224.397 134.774 224.123 134.511C223.85 134.249 223.66 133.911 223.577 133.541C223.494 133.171 223.522 132.785 223.657 132.431C223.792 132.077 224.028 131.77 224.336 131.55C224.645 131.329 225.011 131.204 225.39 131.19C225.907 131.19 226.404 131.389 226.777 131.747C227.15 132.105 227.369 132.594 227.39 133.11Z" fill="#263238"/>
<g style="mix-blend-mode:multiply" opacity="0.5">
<g style="mix-blend-mode:multiply" opacity="0.5">
<path d="M218.29 131.97L218.55 143.59L224.67 141.72L218.29 131.97Z" fill="#F28F8F"/>
</g>
</g>
<g style="mix-blend-mode:multiply" opacity="0.5">
<g style="mix-blend-mode:multiply" opacity="0.5">
<path d="M209.68 158.16C204.75 157.49 194.61 154.54 193.04 150.52C193.668 152.551 194.904 154.342 196.58 155.65C199.58 158.26 209.66 161.23 209.66 161.23L209.68 158.16Z" fill="#F28F8F"/>
</g>
</g>
<path d="M176.1 167.47C166.42 168.15 162.42 169.39 157.03 181.35C152.19 192.1 140.58 219.91 137.68 226.12C134.78 232.33 134.23 234.81 136.68 241.3C138.68 246.59 155.01 276.98 156.8 281.41C158.59 285.84 159.38 290.32 162.43 295.48C165.48 300.64 170.3 305.68 174.11 306.87C179.76 308.64 187.11 306.18 187.33 302.77C187.55 299.36 179.04 293.67 176.72 286.1C178.257 287.11 179.876 287.99 181.56 288.73C183.86 289.67 186.41 289.46 187.17 288.16C187.93 286.86 185.64 286.06 183.6 284.04C182.38 282.83 180.22 280.11 177.46 277.71C175.6 276.09 172.53 275.61 171.16 273.83C170.41 272.88 167.05 264.65 164.53 257.31C161.4 248.23 157.29 236.13 157.29 236.13L174.11 201.13C174.11 201.13 187.31 188 176.1 167.47Z" fill="#FFA8A7"/>
<path d="M156.78 281.41C156.78 281.41 160.65 273.58 171.14 273.83L168.37 267.67C168.37 267.67 158.13 268.39 153.82 275.31L156.78 281.41Z" fill="#37474F"/>
<path d="M155.65 274.76L157.93 277.95C158.093 278.182 158.301 278.379 158.542 278.529C158.783 278.679 159.051 278.778 159.332 278.821C159.612 278.864 159.898 278.85 160.173 278.779C160.448 278.708 160.705 278.583 160.93 278.41L164.93 275.41C165.393 275.052 165.703 274.533 165.798 273.955C165.892 273.378 165.764 272.787 165.44 272.3L163.35 269.22C163.195 268.98 162.992 268.775 162.753 268.616C162.515 268.458 162.247 268.351 161.965 268.301C161.684 268.252 161.395 268.261 161.117 268.327C160.839 268.394 160.578 268.518 160.35 268.69L156.1 271.69C155.634 272.038 155.326 272.557 155.242 273.132C155.157 273.707 155.304 274.293 155.65 274.76Z" fill="#263238"/>
<path d="M154.9 274.68L157.18 277.87C157.343 278.102 157.551 278.299 157.791 278.449C158.032 278.598 158.3 278.698 158.58 278.742C158.86 278.786 159.146 278.773 159.421 278.704C159.696 278.635 159.954 278.511 160.18 278.34L164.18 275.34C164.645 274.984 164.957 274.465 165.053 273.888C165.15 273.31 165.023 272.718 164.7 272.23L162.61 269.15C162.452 268.913 162.247 268.711 162.009 268.556C161.771 268.4 161.503 268.295 161.223 268.245C160.943 268.196 160.655 268.203 160.378 268.268C160.101 268.332 159.84 268.452 159.61 268.62L155.37 271.67C154.914 272.011 154.61 272.517 154.522 273.079C154.434 273.642 154.57 274.216 154.9 274.68Z" fill="#455A64"/>
<path d="M164.28 273.63C164.258 273.827 164.197 274.017 164.099 274.189C164 274.361 163.868 274.511 163.71 274.63L159.71 277.63C159.423 277.842 159.063 277.932 158.71 277.88C158.54 277.855 158.376 277.794 158.23 277.703C158.084 277.612 157.958 277.492 157.86 277.35L155.58 274.15C155.385 273.881 155.296 273.55 155.33 273.22C155.346 273.023 155.405 272.832 155.501 272.659C155.598 272.487 155.73 272.337 155.89 272.22L160.13 269.22C160.272 269.115 160.434 269.04 160.606 269C160.778 268.961 160.957 268.957 161.13 268.99C161.302 269.018 161.466 269.081 161.613 269.176C161.759 269.271 161.884 269.395 161.98 269.54L164.07 272.62C164.266 272.914 164.351 273.269 164.31 273.62L164.28 273.63Z" fill="#BA68C8"/>
</svg>
